<?xml version="1.0" encoding="UTF-8" standalone="no"?>
<svg
   xmlns:dc="http://purl.org/dc/elements/1.1/"
   xmlns:cc="http://creativecommons.org/ns#"
   xmlns:rdf="http://www.w3.org/1999/02/22-rdf-syntax-ns#"
   xmlns:svg="http://www.w3.org/2000/svg"
   xmlns="http://www.w3.org/2000/svg"
   viewBox="0 0 1122.52 793.70667"
   height="793.70667"
   width="1122.52"
   xml:space="preserve"
   id="svg2"
   version="1.1"><metadata
     id="metadata8"><rdf:RDF><cc:Work
         rdf:about=""><dc:format>image/svg+xml</dc:format><dc:type
           rdf:resource="http://purl.org/dc/dcmitype/StillImage" /></cc:Work></rdf:RDF></metadata><defs
     id="defs6"><linearGradient
       id="linearGradient30"
       spreadMethod="pad"
       gradientTransform="matrix(276.13184,0,0,-276.13184,282.87891,297.63965)"
       gradientUnits="userSpaceOnUse"
       y2="0"
       x2="1"
       y1="0"
       x1="0"><stop
         id="stop24"
         offset="0"
         style="stop-opacity:1;stop-color:#4ac3cc" /><stop
         id="stop26"
         offset="0.59181753"
         style="stop-opacity:1;stop-color:#2f66ba" /><stop
         id="stop28"
         offset="1"
         style="stop-opacity:1;stop-color:#2f66ba" /></linearGradient></defs><g
     transform="matrix(1.3333333,0,0,-1.3333333,0,793.70667)"
     id="g10"><g
       id="g12"><g
         id="g14"><g
           id="g20"><g
             id="g22"><path
               id="path32"
               style="fill:url(#linearGradient30);stroke:none"
               d="m 348.546,338.543 c -1.818,-4.135 -0.512,-8.872 2.89,-11.542 v 0 l -7.202,-16.387 c -4.957,1.34 -10.167,0.208 -14.092,-2.807 v 0 l -6.397,11.828 c 0.53,0.568 0.98,1.229 1.307,1.982 v 0 c 1.553,3.533 -0.058,7.667 -3.592,9.225 v 0 c -3.531,1.55 -7.674,-0.059 -9.223,-3.591 v 0 c -1.558,-3.534 0.057,-7.675 3.59,-9.227 v 0 c 1.166,-0.515 2.409,-0.679 3.594,-0.547 v 0 l 7.234,-13.373 c -0.543,-0.806 -1.025,-1.669 -1.434,-2.591 v 0 c -1.444,-3.284 -1.701,-6.791 -0.966,-10.043 v 0 l -17.892,-6.967 c -1.237,-0.486 -1.86,-1.883 -1.376,-3.128 v 0 c 0.243,-0.621 0.719,-1.086 1.281,-1.333 v 0 c 0.563,-0.251 1.225,-0.283 1.846,-0.04 v 0 l 17.895,6.961 c 1.273,-2.237 3.093,-4.174 5.363,-5.607 v 0 l -7.223,-16.428 c -2.839,0.177 -5.626,-1.413 -6.838,-4.173 v 0 c -1.549,-3.533 0.061,-7.669 3.594,-9.226 v 0 c 3.533,-1.55 7.674,0.065 9.225,3.592 v 0 c 1.21,2.761 0.496,5.888 -1.551,7.865 v 0 l 7.217,16.42 c 7.58,-2.055 15.759,1.696 19.017,9.102 v 0 c 3.258,7.404 0.483,15.963 -6.156,20.164 v 0 l 7.203,16.385 c 4.266,-0.703 8.643,1.539 10.462,5.673 v 0 c 2.151,4.901 -0.085,10.637 -4.979,12.79 v 0 c -1.269,0.557 -2.593,0.82 -3.896,0.82 v 0 c -3.739,0 -7.305,-2.167 -8.901,-5.797 m 6.922,-8.375 c -2.461,1.088 -3.586,3.97 -2.501,6.432 v 0 c 1.08,2.459 3.966,3.584 6.425,2.498 v 0 c 2.46,-1.079 3.585,-3.965 2.507,-6.423 v 0 c -0.807,-1.826 -2.599,-2.918 -4.478,-2.918 v 0 c -0.654,0 -1.317,0.132 -1.953,0.411 m -20.014,-45.533 c -5.717,2.518 -8.328,9.217 -5.815,14.934 v 0 c 0.45,1.009 1.02,1.924 1.701,2.73 v 0 c 0.032,0.039 0.065,0.076 0.099,0.117 v 0 c 3.166,3.669 8.478,5.018 13.136,2.969 v 0 c 5.717,-2.512 8.334,-9.218 5.815,-14.935 v 0 c -1.867,-4.244 -6.028,-6.772 -10.388,-6.772 v 0 c -1.522,0 -3.067,0.307 -4.548,0.957 m 216.975,52.684 -5.154,-13.031 c -0.047,-0.08 -0.067,-0.185 -0.067,-0.316 v 0 c 0,-0.197 0.072,-0.366 0.211,-0.508 v 0 c 0.143,-0.138 0.312,-0.203 0.502,-0.203 v 0 c 0.34,0 0.576,0.163 0.707,0.502 v 0 l 1.543,3.86 h 5.882 l 1.526,-3.887 c 0.123,-0.32 0.36,-0.475 0.694,-0.475 v 0 c 0.214,0 0.39,0.065 0.529,0.203 v 0 c 0.142,0.142 0.209,0.311 0.209,0.508 v 0 c 0,0.112 -0.02,0.217 -0.067,0.316 v 0 l -5.148,13.031 c -0.143,0.32 -0.372,0.482 -0.697,0.482 v 0 c -0.303,0 -0.531,-0.162 -0.67,-0.482 m 0.67,-1.917 2.51,-6.463 h -4.999 z m -20.094,2.192 c -0.148,-0.143 -0.215,-0.308 -0.215,-0.511 v 0 -9.335 c 0,-0.982 -0.256,-1.773 -0.766,-2.369 v 0 c -0.506,-0.6 -1.419,-0.902 -2.742,-0.902 v 0 c -0.701,0 -1.294,0.09 -1.771,0.268 v 0 c -0.479,0.177 -0.846,0.425 -1.092,0.752 v 0 c -0.244,0.314 -0.414,0.661 -0.514,1.02 v 0 c -0.103,0.36 -0.148,0.774 -0.148,1.231 v 0 9.335 c 0,0.203 -0.081,0.368 -0.215,0.511 v 0 c -0.139,0.137 -0.308,0.207 -0.506,0.207 v 0 c -0.196,0 -0.365,-0.07 -0.51,-0.207 v 0 c -0.138,-0.143 -0.208,-0.308 -0.208,-0.511 v 0 -9.335 c 0,-3.082 1.654,-4.618 4.964,-4.618 v 0 c 3.291,0 4.94,1.536 4.94,4.618 v 0 9.335 c 0,0.203 -0.065,0.368 -0.207,0.511 v 0 c -0.147,0.137 -0.309,0.207 -0.506,0.207 v 0 c -0.203,0 -0.367,-0.07 -0.504,-0.207 m -18.67,0 c -0.146,-0.143 -0.211,-0.308 -0.211,-0.511 v 0 -12.941 c 0,-0.202 0.065,-0.367 0.211,-0.509 v 0 c 0.135,-0.137 0.307,-0.209 0.502,-0.209 v 0 h 6.504 c 0.203,0 0.359,0.065 0.492,0.196 v 0 c 0.123,0.116 0.181,0.281 0.181,0.483 v 0 c 0,0.196 -0.058,0.354 -0.181,0.479 v 0 c -0.133,0.131 -0.289,0.197 -0.492,0.197 v 0 h -5.783 v 12.304 c 0,0.203 -0.08,0.368 -0.217,0.511 v 0 c -0.137,0.137 -0.307,0.207 -0.504,0.207 v 0 c -0.195,0 -0.367,-0.07 -0.502,-0.207 m -9.062,-0.275 -5.149,-13.031 c -0.039,-0.08 -0.066,-0.185 -0.066,-0.316 v 0 c 0,-0.197 0.072,-0.366 0.211,-0.508 v 0 c 0.136,-0.138 0.312,-0.203 0.502,-0.203 v 0 c 0.339,0 0.568,0.163 0.701,0.502 v 0 l 1.542,3.86 h 5.889 l 1.518,-3.887 c 0.131,-0.32 0.367,-0.475 0.701,-0.475 v 0 c 0.209,0 0.39,0.065 0.53,0.203 v 0 c 0.138,0.142 0.209,0.311 0.209,0.508 v 0 c 0,0.112 -0.02,0.217 -0.067,0.316 v 0 l -5.149,13.031 c -0.134,0.32 -0.371,0.482 -0.693,0.482 v 0 c -0.314,0 -0.535,-0.162 -0.679,-0.482 m 0.679,-1.917 2.508,-6.463 h -5.008 z m -21.543,2.199 c -0.144,-0.132 -0.209,-0.296 -0.209,-0.493 v 0 -10.833 l -7.478,11.233 c -0.137,0.196 -0.327,0.293 -0.571,0.293 v 0 c -0.182,0 -0.344,-0.064 -0.482,-0.2 v 0 c -0.145,-0.132 -0.215,-0.296 -0.215,-0.493 v 0 -13.154 c 0,-0.191 0.07,-0.348 0.215,-0.49 v 0 c 0.138,-0.138 0.3,-0.203 0.482,-0.203 v 0 c 0.184,0 0.35,0.065 0.486,0.203 v 0 c 0.137,0.142 0.21,0.299 0.21,0.49 v 0 10.813 l 7.439,-11.22 c 0.156,-0.195 0.351,-0.286 0.588,-0.286 v 0 c 0.195,0 0.367,0.065 0.504,0.203 v 0 c 0.149,0.142 0.215,0.311 0.215,0.508 v 0 13.136 c 0,0.197 -0.066,0.361 -0.215,0.493 v 0 c -0.137,0.136 -0.301,0.2 -0.484,0.2 v 0 c -0.177,0 -0.348,-0.064 -0.485,-0.2 m -17.592,-0.282 -5.149,-13.031 c -0.04,-0.08 -0.065,-0.185 -0.065,-0.316 v 0 c 0,-0.197 0.074,-0.366 0.217,-0.508 v 0 c 0.136,-0.138 0.306,-0.203 0.501,-0.203 v 0 c 0.342,0 0.571,0.163 0.701,0.502 v 0 l 1.544,3.86 h 5.89 l 1.518,-3.887 c 0.131,-0.32 0.359,-0.475 0.693,-0.475 v 0 c 0.209,0 0.393,0.065 0.535,0.203 v 0 c 0.139,0.142 0.203,0.311 0.203,0.508 v 0 c 0,0.112 -0.019,0.217 -0.06,0.316 v 0 l -5.152,13.031 c -0.139,0.32 -0.376,0.482 -0.696,0.482 v 0 c -0.309,0 -0.537,-0.162 -0.68,-0.482 m 0.68,-1.917 2.512,-6.463 h -5.004 z m -57.258,2.192 c -0.137,-0.143 -0.201,-0.308 -0.201,-0.511 v 0 -77.577 c 0,-0.196 0.064,-0.367 0.201,-0.512 v 0 c 0.143,-0.137 0.32,-0.202 0.51,-0.202 v 0 c 0.203,0 0.367,0.065 0.506,0.202 v 0 c 0.142,0.145 0.22,0.316 0.22,0.512 v 0 77.577 c 0,0.203 -0.078,0.368 -0.22,0.511 v 0 c -0.139,0.137 -0.303,0.207 -0.506,0.207 v 0 c -0.19,0 -0.367,-0.07 -0.51,-0.207 m 127.045,0.039 c -0.197,0 -0.359,-0.065 -0.484,-0.203 v 0 c -0.133,-0.132 -0.189,-0.289 -0.189,-0.47 v 0 c 0,-0.191 0.056,-0.342 0.189,-0.473 v 0 c 0.125,-0.137 0.287,-0.203 0.484,-0.203 v 0 h 6.863 l -7.857,-11.782 c -0.086,-0.123 -0.125,-0.262 -0.125,-0.399 v 0 c 0,-0.202 0.065,-0.367 0.203,-0.483 v 0 c 0.131,-0.131 0.295,-0.196 0.478,-0.196 v 0 h 8.864 c 0.183,0 0.34,0.065 0.47,0.196 v 0 c 0.139,0.116 0.204,0.281 0.204,0.483 v 0 c 0,0.196 -0.065,0.354 -0.204,0.479 v 0 c -0.13,0.131 -0.287,0.197 -0.47,0.197 v 0 h -7.557 l 7.785,11.781 c 0.087,0.124 0.132,0.254 0.132,0.4 v 0 c 0,0.181 -0.065,0.338 -0.19,0.47 v 0 c -0.131,0.138 -0.287,0.203 -0.483,0.203 v 0 z m -47.81,0 c -0.19,0 -0.362,-0.071 -0.504,-0.21 v 0 c -0.139,-0.137 -0.21,-0.315 -0.21,-0.504 v 0 -12.777 c 0,-0.202 0.071,-0.367 0.21,-0.509 v 0 c 0.142,-0.137 0.314,-0.209 0.504,-0.209 v 0 h 2.982 c 2.113,0 3.723,0.555 4.842,1.666 v 0 c 1.125,1.113 1.687,2.927 1.687,5.424 v 0 c 0,2.507 -0.562,4.325 -1.687,5.443 v 0 c -1.119,1.119 -2.729,1.676 -4.842,1.676 v 0 z m 0.718,-1.308 h 2.264 c 1.662,0 2.926,-0.446 3.781,-1.335 v 0 c 0.85,-0.896 1.289,-2.388 1.289,-4.476 v 0 c 0,-2.092 -0.439,-3.583 -1.289,-4.461 v 0 c -0.855,-0.883 -2.119,-1.322 -3.781,-1.322 v 0 h -2.264 z m -44.611,1.308 c -0.205,0 -0.367,-0.071 -0.512,-0.21 v 0 c -0.142,-0.137 -0.207,-0.315 -0.207,-0.504 v 0 -12.777 c 0,-0.202 0.065,-0.367 0.207,-0.509 v 0 c 0.145,-0.137 0.307,-0.209 0.512,-0.209 v 0 h 2.969 c 2.113,0 3.736,0.555 4.856,1.666 v 0 c 1.113,1.113 1.675,2.927 1.675,5.424 v 0 c 0,2.507 -0.562,4.325 -1.675,5.443 v 0 c -1.12,1.119 -2.743,1.676 -4.856,1.676 v 0 z m 0.721,-1.308 h 2.248 c 1.664,0 2.926,-0.446 3.781,-1.335 v 0 c 0.865,-0.896 1.289,-2.388 1.289,-4.476 v 0 c 0,-2.092 -0.424,-3.583 -1.289,-4.461 v 0 c -0.855,-0.883 -2.117,-1.322 -3.781,-1.322 v 0 h -2.248 z m -11.66,1.308 c -0.196,0 -0.366,-0.071 -0.503,-0.21 v 0 c -0.152,-0.137 -0.218,-0.315 -0.218,-0.504 v 0 -12.777 c 0,-0.202 0.066,-0.367 0.218,-0.509 v 0 c 0.137,-0.137 0.307,-0.209 0.503,-0.209 v 0 h 7.005 c 0.192,0 0.342,0.065 0.465,0.196 v 0 c 0.131,0.116 0.192,0.274 0.192,0.457 v 0 c 0,0.184 -0.061,0.341 -0.192,0.465 v 0 c -0.123,0.124 -0.273,0.189 -0.465,0.189 v 0 h -6.291 v 5.203 h 4.65 c 0.184,0 0.335,0.05 0.458,0.189 v 0 c 0.131,0.123 0.197,0.273 0.197,0.465 v 0 c 0,0.175 -0.066,0.334 -0.197,0.457 v 0 c -0.123,0.123 -0.274,0.188 -0.458,0.188 v 0 h -4.65 v 5.092 h 6.057 c 0.189,0 0.347,0.064 0.471,0.196 v 0 c 0.125,0.118 0.183,0.275 0.183,0.456 v 0 c 0,0.186 -0.058,0.342 -0.183,0.465 v 0 c -0.124,0.126 -0.282,0.191 -0.471,0.191 v 0 z m -11.528,0 c -0.195,0 -0.373,-0.071 -0.509,-0.21 v 0 c -0.14,-0.137 -0.21,-0.315 -0.21,-0.504 v 0 -12.947 c 0,-0.197 0.07,-0.366 0.21,-0.508 v 0 c 0.136,-0.138 0.314,-0.203 0.509,-0.203 v 0 c 0.192,0 0.368,0.065 0.504,0.203 v 0 c 0.137,0.142 0.209,0.311 0.209,0.508 v 0 5.595 h 2.133 l 4.293,-5.972 c 0.15,-0.224 0.354,-0.334 0.608,-0.334 v 0 c 0.197,0 0.367,0.065 0.505,0.203 v 0 c 0.135,0.142 0.213,0.311 0.213,0.508 v 0 c 0,0.186 -0.051,0.327 -0.149,0.446 v 0 l -3.861,5.149 c 1.125,0.058 2.035,0.465 2.736,1.229 v 0 c 0.694,0.759 1.045,1.695 1.045,2.806 v 0 c 0,1.146 -0.384,2.101 -1.142,2.873 v 0 c -0.76,0.771 -1.729,1.158 -2.893,1.158 v 0 z m 0.713,-1.308 h 3.469 c 0.75,0 1.378,-0.255 1.864,-0.773 v 0 c 0.484,-0.509 0.733,-1.163 0.733,-1.95 v 0 c 0,-0.778 -0.244,-1.418 -0.726,-1.944 v 0 c -0.473,-0.522 -1.08,-0.784 -1.806,-0.784 v 0 h -3.534 z m 59.084,-16.024 -1.884,-2.277 c -0.184,-0.234 -0.157,-0.45 0.066,-0.634 v 0 c 0.209,-0.175 0.426,-0.167 0.635,0.046 v 0 l 2.046,2.068 c 0.251,0.256 0.231,0.525 -0.064,0.797 v 0 c -0.154,0.141 -0.298,0.212 -0.432,0.212 v 0 c -0.133,0 -0.256,-0.071 -0.367,-0.212 m 25.057,-5.828 c -1.151,-1.242 -1.719,-3.087 -1.719,-5.541 v 0 c 0,-4.934 2.183,-7.392 6.58,-7.392 v 0 c 0.975,0 1.898,0.207 2.767,0.614 v 0 c 0.87,0.406 1.538,0.948 2.003,1.623 v 0 c 0.089,0.131 0.13,0.261 0.13,0.405 v 0 c 0,0.176 -0.066,0.339 -0.191,0.471 v 0 c -0.123,0.137 -0.281,0.202 -0.476,0.202 v 0 c -0.249,0 -0.438,-0.091 -0.557,-0.274 v 0 c -0.398,-0.557 -0.922,-0.988 -1.583,-1.289 v 0 c -0.667,-0.294 -1.36,-0.445 -2.093,-0.445 v 0 c -1.687,0 -2.965,0.483 -3.828,1.453 v 0 c -0.849,0.962 -1.275,2.497 -1.275,4.632 v 0 c 0,2.041 0.433,3.566 1.314,4.587 v 0 c 0.877,1.006 2.133,1.517 3.789,1.517 v 0 c 0.766,0 1.472,-0.171 2.119,-0.505 v 0 c 0.66,-0.319 1.178,-0.751 1.557,-1.273 v 0 c 0.144,-0.186 0.32,-0.27 0.557,-0.27 v 0 c 0.195,0 0.353,0.059 0.476,0.189 v 0 c 0.125,0.126 0.191,0.282 0.191,0.485 v 0 c 0,0.151 -0.044,0.3 -0.15,0.438 v 0 c -0.504,0.693 -1.178,1.237 -2.002,1.642 v 0 c -0.832,0.399 -1.748,0.602 -2.748,0.602 v 0 c -2.093,0 -3.722,-0.629 -4.861,-1.871 m -30.585,0 c -1.145,-1.242 -1.722,-3.087 -1.722,-5.541 v 0 c 0,-2.434 0.584,-4.279 1.734,-5.522 v 0 c 1.151,-1.249 2.77,-1.87 4.862,-1.87 v 0 c 2.08,0 3.697,0.621 4.854,1.87 v 0 c 1.152,1.243 1.728,3.088 1.728,5.522 v 0 c 0,2.454 -0.576,4.299 -1.721,5.541 v 0 c -1.144,1.242 -2.768,1.871 -4.861,1.871 v 0 c -2.108,0 -3.723,-0.629 -4.874,-1.871 m 1.079,-10.1 c -0.883,1.005 -1.314,2.531 -1.314,4.559 v 0 c 0,2.041 0.431,3.566 1.314,4.587 v 0 c 0.879,1.006 2.144,1.517 3.795,1.517 v 0 c 1.642,0 2.91,-0.511 3.787,-1.517 v 0 c 0.877,-1.021 1.316,-2.546 1.316,-4.587 v 0 c 0,-2.028 -0.439,-3.554 -1.316,-4.559 v 0 c -0.877,-1.015 -2.145,-1.526 -3.787,-1.526 v 0 c -1.651,0 -2.916,0.511 -3.795,1.526 m -27.955,10.1 c -1.15,-1.242 -1.728,-3.087 -1.728,-5.541 v 0 c 0,-2.434 0.578,-4.279 1.736,-5.522 v 0 c 1.15,-1.249 2.779,-1.87 4.859,-1.87 v 0 c 2.08,0 3.703,0.621 4.855,1.87 v 0 c 1.159,1.243 1.733,3.088 1.733,5.522 v 0 c 0,2.454 -0.574,4.299 -1.726,5.541 v 0 c -1.145,1.242 -2.761,1.871 -4.862,1.871 v 0 c -2.1,0 -3.723,-0.629 -4.867,-1.871 m 1.074,-10.1 c -0.877,1.005 -1.322,2.531 -1.322,4.559 v 0 c 0,2.041 0.445,3.566 1.322,4.587 v 0 c 0.883,1.006 2.145,1.517 3.793,1.517 v 0 c 1.642,0 2.904,-0.511 3.789,-1.517 v 0 c 0.875,-1.021 1.322,-2.546 1.322,-4.587 v 0 c 0,-2.028 -0.447,-3.554 -1.322,-4.559 v 0 c -0.885,-1.015 -2.147,-1.526 -3.789,-1.526 v 0 c -1.648,0 -2.91,0.511 -3.793,1.526 m 72.737,11.357 -5.157,-13.026 c -0.045,-0.085 -0.056,-0.191 -0.056,-0.321 v 0 c 0,-0.196 0.064,-0.367 0.207,-0.51 v 0 c 0.144,-0.131 0.308,-0.202 0.511,-0.202 v 0 c 0.338,0 0.562,0.164 0.694,0.509 v 0 l 1.544,3.853 h 5.893 l 1.511,-3.879 c 0.124,-0.327 0.368,-0.483 0.7,-0.483 v 0 c 0.211,0 0.387,0.071 0.525,0.202 v 0 c 0.151,0.143 0.215,0.314 0.215,0.51 v 0 c 0,0.112 -0.027,0.221 -0.064,0.321 v 0 l -5.156,13.026 c -0.139,0.319 -0.374,0.483 -0.693,0.483 v 0 c -0.309,0 -0.538,-0.164 -0.674,-0.483 m 0.674,-1.917 2.511,-6.463 h -5.004 z m -22.599,2.19 c -0.136,-0.143 -0.207,-0.306 -0.207,-0.509 v 0 -13.111 c 0,-0.196 0.071,-0.367 0.207,-0.51 v 0 c 0.145,-0.131 0.315,-0.202 0.513,-0.202 v 0 c 0.195,0 0.359,0.071 0.504,0.202 v 0 c 0.142,0.143 0.214,0.314 0.214,0.51 v 0 13.111 c 0,0.203 -0.072,0.366 -0.214,0.509 v 0 c -0.145,0.138 -0.309,0.21 -0.504,0.21 v 0 c -0.198,0 -0.368,-0.072 -0.513,-0.21 m -12.078,0.046 c -0.195,0 -0.359,-0.072 -0.476,-0.203 v 0 c -0.137,-0.131 -0.196,-0.294 -0.196,-0.476 v 0 c 0,-0.185 0.059,-0.34 0.196,-0.472 v 0 c 0.117,-0.137 0.281,-0.203 0.476,-0.203 v 0 h 3.783 v -12.312 c 0,-0.196 0.073,-0.367 0.21,-0.51 v 0 c 0.144,-0.131 0.306,-0.202 0.511,-0.202 v 0 c 0.195,0 0.366,0.071 0.51,0.202 v 0 c 0.135,0.143 0.209,0.314 0.209,0.51 v 0 12.312 h 3.762 c 0.178,0 0.334,0.066 0.465,0.203 v 0 c 0.136,0.132 0.203,0.287 0.203,0.472 v 0 c 0,0.182 -0.067,0.345 -0.203,0.476 v 0 c -0.131,0.131 -0.287,0.203 -0.465,0.203 v 0 z m -25.015,0 c -0.197,0 -0.367,-0.072 -0.51,-0.214 v 0 c -0.139,-0.138 -0.209,-0.309 -0.209,-0.505 v 0 -12.776 c 0,-0.196 0.07,-0.367 0.209,-0.505 v 0 c 0.143,-0.144 0.313,-0.214 0.51,-0.214 v 0 h 4.218 c 1.375,0 2.447,0.366 3.193,1.098 v 0 c 0.761,0.731 1.132,1.72 1.132,2.957 v 0 c 0,0.968 -0.242,1.753 -0.731,2.342 v 0 c -0.498,0.596 -1.154,0.981 -1.97,1.184 v 0 c 0.607,0.17 1.099,0.518 1.484,1.047 v 0 c 0.381,0.528 0.563,1.131 0.563,1.825 v 0 c 0,1.184 -0.346,2.105 -1.067,2.767 v 0 c -0.707,0.66 -1.791,0.994 -3.236,0.994 v 0 z m 0.713,-1.314 h 2.851 c 1.911,0 2.874,-0.811 2.874,-2.447 v 0 c 0,-0.767 -0.249,-1.362 -0.739,-1.792 v 0 c -0.492,-0.445 -1.199,-0.661 -2.135,-0.661 v 0 h -2.851 z m 0,-6.118 h 3.488 c 0.895,0 1.601,-0.241 2.113,-0.726 v 0 c 0.516,-0.47 0.778,-1.144 0.778,-2.001 v 0 c 0,-0.872 -0.243,-1.551 -0.741,-2.022 v 0 c -0.49,-0.483 -1.21,-0.719 -2.15,-0.719 v 0 h -3.488 z m -27.282,7.432 c -0.197,0 -0.364,-0.072 -0.504,-0.214 v 0 c -0.144,-0.138 -0.21,-0.309 -0.21,-0.505 v 0 -12.947 c 0,-0.196 0.066,-0.367 0.21,-0.51 v 0 c 0.14,-0.131 0.307,-0.202 0.504,-0.202 v 0 c 0.195,0 0.365,0.071 0.504,0.202 v 0 c 0.143,0.143 0.209,0.314 0.209,0.51 v 0 5.595 h 2.139 l 4.285,-5.974 c 0.158,-0.224 0.359,-0.333 0.609,-0.333 v 0 c 0.204,0 0.368,0.071 0.511,0.202 v 0 c 0.138,0.143 0.216,0.314 0.216,0.51 v 0 c 0,0.183 -0.053,0.334 -0.152,0.445 v 0 l -3.863,5.15 c 1.122,0.058 2.033,0.464 2.738,1.229 v 0 c 0.693,0.758 1.041,1.693 1.041,2.807 v 0 c 0,1.145 -0.381,2.1 -1.139,2.872 v 0 c -0.76,0.771 -1.727,1.163 -2.892,1.163 v 0 z m 0.713,-1.314 h 3.467 c 0.766,0 1.387,-0.254 1.873,-0.766 v 0 c 0.483,-0.516 0.725,-1.17 0.725,-1.955 v 0 c 0,-0.78 -0.235,-1.42 -0.721,-1.945 v 0 c -0.477,-0.522 -1.086,-0.784 -1.811,-0.784 v 0 h -3.533 z m -14.437,1.314 h -1.893 -0.006 c -0.195,0 -0.367,-0.072 -0.503,-0.214 v 0 c -0.14,-0.138 -0.21,-0.309 -0.21,-0.505 v 0 -12.776 c 0,-0.196 0.07,-0.367 0.21,-0.505 v 0 c 0.136,-0.144 0.308,-0.214 0.503,-0.214 v 0 h 0.006 1.571 1.394 c 2.119,0 3.737,0.554 4.854,1.666 v 0 c 1.118,1.113 1.681,2.926 1.681,5.431 v 0 c 0,2.507 -0.563,4.318 -1.681,5.436 v 0 c -1.117,1.118 -2.735,1.681 -4.854,1.681 v 0 z m -1.172,-1.314 h 1.172 1.072 c 1.66,0 2.922,-0.445 3.787,-1.334 v 0 c 0.863,-0.897 1.289,-2.387 1.289,-4.469 v 0 c 0,-2.102 -0.426,-3.586 -1.289,-4.469 v 0 c -0.865,-0.875 -2.127,-1.314 -3.787,-1.314 v 0 h -1.394 -0.85 v 5.194 h 2.689 c 0.182,0 0.338,0.053 0.465,0.19 v 0 c 0.123,0.124 0.196,0.28 0.196,0.465 v 0 c 0,0.175 -0.073,0.334 -0.196,0.465 v 0 c -0.127,0.123 -0.283,0.189 -0.465,0.189 v 0 h -2.689 z m -53.175,-2.709 c -0.886,-2.022 0.037,-4.389 2.06,-5.272 v 0 c 2.021,-0.896 4.388,0.025 5.271,2.054 v 0 c 0.893,2.014 -0.025,4.389 -2.053,5.273 v 0 c -0.521,0.23 -1.066,0.339 -1.604,0.339 v 0 c -1.54,0 -3.016,-0.894 -3.674,-2.394 m -62.833,-7.955 c -0.654,-1.492 0.033,-3.239 1.525,-3.892 v 0 c 1.491,-0.662 3.237,0.025 3.897,1.517 v 0 c 0.648,1.492 -0.033,3.239 -1.523,3.893 v 0 c -0.386,0.171 -0.79,0.252 -1.187,0.252 v 0 c -1.136,0 -2.222,-0.664 -2.712,-1.77 m 235.449,-5.352 -1.877,-2.277 c -0.189,-0.235 -0.163,-0.45 0.059,-0.64 v 0 c 0.209,-0.176 0.426,-0.164 0.643,0.046 v 0 l 2.039,2.067 c 0.254,0.262 0.229,0.53 -0.065,0.804 v 0 c -0.154,0.141 -0.298,0.211 -0.432,0.211 v 0 c -0.133,0 -0.255,-0.07 -0.367,-0.211 M 380.413,292.27 c -0.09,-0.224 -0.189,-0.46 -0.267,-0.695 v 0 l -18.378,1.583 c -1.335,0.112 -2.507,-0.877 -2.617,-2.205 v 0 c -0.092,-1.052 0.51,-2.008 1.439,-2.413 v 0 c 0.229,-0.105 0.491,-0.171 0.758,-0.198 v 0 l 18.385,-1.575 c 0.524,-3.121 2.557,-5.92 5.667,-7.287 v 0 c 4.892,-2.154 10.631,0.078 12.789,4.977 v 0 c 2.152,4.9 -0.078,10.639 -4.979,12.797 v 0 c -1.267,0.556 -2.59,0.82 -3.893,0.82 v 0 c -3.735,0 -7.304,-2.167 -8.904,-5.804 m 6.928,-8.369 c -2.465,1.079 -3.585,3.965 -2.506,6.423 v 0 c 1.08,2.468 3.965,3.588 6.432,2.5 v 0 c 2.461,-1.08 3.584,-3.956 2.499,-6.424 v 0 c -0.8,-1.823 -2.592,-2.912 -4.468,-2.912 v 0 c -0.655,0 -1.32,0.132 -1.957,0.413 m 140.981,9.056 c -1.153,-1.256 -1.723,-3.098 -1.723,-5.547 v 0 c 0,-4.928 2.199,-7.396 6.583,-7.396 v 0 c 2.047,0 3.729,0.78 5.051,2.33 v 0 c 0.184,0.216 0.282,0.449 0.282,0.693 v 0 3.697 c 0,0.183 -0.073,0.341 -0.21,0.464 v 0 c -0.13,0.124 -0.289,0.19 -0.452,0.19 v 0 h -4.258 c -0.192,0 -0.348,-0.066 -0.473,-0.19 v 0 c -0.123,-0.123 -0.187,-0.281 -0.187,-0.464 v 0 c 0,-0.181 0.064,-0.34 0.187,-0.472 v 0 c 0.125,-0.123 0.281,-0.182 0.473,-0.182 v 0 h 3.52 v -3.061 c -0.905,-1.126 -2.212,-1.695 -3.933,-1.695 v 0 c -1.681,0 -2.964,0.482 -3.814,1.452 v 0 c -0.863,0.962 -1.289,2.513 -1.289,4.634 v 0 c 0,2.039 0.438,3.571 1.314,4.577 v 0 c 0.885,1.014 2.142,1.525 3.789,1.525 v 0 c 0.78,0 1.493,-0.162 2.132,-0.496 v 0 c 0.656,-0.328 1.165,-0.753 1.544,-1.283 v 0 c 0.139,-0.177 0.327,-0.268 0.557,-0.268 v 0 c 0.189,0 0.359,0.058 0.484,0.188 v 0 c 0.117,0.124 0.188,0.287 0.188,0.486 v 0 c 0,0.157 -0.051,0.299 -0.149,0.437 v 0 c -0.511,0.694 -1.177,1.243 -2.002,1.643 v 0 c -0.837,0.397 -1.746,0.6 -2.754,0.6 v 0 c -2.095,0 -3.717,-0.628 -4.86,-1.862 m -15.036,0 c -1.145,-1.256 -1.721,-3.098 -1.721,-5.547 v 0 c 0,-2.436 0.576,-4.282 1.727,-5.524 v 0 c 1.158,-1.244 2.773,-1.872 4.855,-1.872 v 0 c 2.088,0 3.712,0.628 4.862,1.872 v 0 c 1.15,1.242 1.734,3.088 1.734,5.524 v 0 c 0,2.449 -0.569,4.291 -1.726,5.547 v 0 c -1.141,1.234 -2.77,1.862 -4.87,1.862 v 0 c -2.093,0 -3.714,-0.628 -4.861,-1.862 m 1.074,-10.109 c -0.882,1.013 -1.314,2.531 -1.314,4.562 v 0 c 0,2.039 0.432,3.571 1.314,4.577 v 0 c 0.877,1.014 2.145,1.525 3.787,1.525 v 0 c 1.651,0 2.913,-0.511 3.795,-1.525 v 0 c 0.877,-1.006 1.321,-2.538 1.321,-4.577 v 0 c 0,-2.031 -0.444,-3.549 -1.321,-4.562 v 0 c -0.882,-1.014 -2.144,-1.524 -3.795,-1.524 v 0 c -1.642,0 -2.91,0.51 -3.787,1.524 m -25.037,10.109 c -1.158,-1.256 -1.728,-3.098 -1.728,-5.547 v 0 c 0,-2.436 0.582,-4.282 1.734,-5.524 v 0 c 1.15,-1.244 2.774,-1.872 4.854,-1.872 v 0 c 2.088,0 3.702,0.628 4.861,1.872 v 0 c 1.153,1.242 1.727,3.088 1.727,5.524 v 0 c 0,2.449 -0.569,4.291 -1.721,5.547 v 0 c -1.143,1.234 -2.766,1.862 -4.867,1.862 v 0 c -2.098,0 -3.721,-0.628 -4.86,-1.862 m 1.073,-10.109 c -0.878,1.013 -1.317,2.531 -1.317,4.562 v 0 c 0,2.039 0.439,3.571 1.317,4.577 v 0 c 0.883,1.014 2.138,1.525 3.787,1.525 v 0 c 1.648,0 2.911,-0.511 3.794,-1.525 v 0 c 0.885,-1.006 1.317,-2.538 1.317,-4.577 v 0 c 0,-2.031 -0.432,-3.549 -1.317,-4.562 v 0 c -0.883,-1.014 -2.146,-1.524 -3.794,-1.524 v 0 c -1.649,0 -2.904,0.51 -3.787,1.524 m -27.491,10.109 c -1.15,-1.256 -1.726,-3.098 -1.726,-5.547 v 0 c 0,-4.928 2.197,-7.396 6.593,-7.396 v 0 c 0.975,0 1.885,0.21 2.762,0.616 v 0 c 0.877,0.407 1.538,0.948 2.008,1.629 v 0 c 0.084,0.125 0.125,0.255 0.125,0.393 v 0 c 0,0.19 -0.066,0.346 -0.191,0.476 v 0 c -0.124,0.139 -0.289,0.204 -0.485,0.204 v 0 c -0.242,0 -0.423,-0.091 -0.548,-0.275 v 0 c -0.391,-0.562 -0.922,-0.994 -1.583,-1.289 v 0 c -0.656,-0.293 -1.361,-0.444 -2.088,-0.444 v 0 c -1.689,0 -2.971,0.482 -3.827,1.452 v 0 c -0.856,0.962 -1.282,2.513 -1.282,4.634 v 0 c 0,2.039 0.432,3.571 1.307,4.577 v 0 c 0.884,1.014 2.146,1.525 3.802,1.525 v 0 c 0.758,0 1.465,-0.162 2.122,-0.496 v 0 c 0.652,-0.328 1.17,-0.753 1.549,-1.283 v 0 c 0.143,-0.177 0.327,-0.268 0.548,-0.268 v 0 c 0.196,0 0.361,0.058 0.485,0.188 v 0 c 0.125,0.124 0.191,0.287 0.191,0.486 v 0 c 0,0.157 -0.047,0.299 -0.151,0.437 v 0 c -0.506,0.694 -1.172,1.243 -2.003,1.643 v 0 c -0.83,0.397 -1.746,0.6 -2.741,0.6 v 0 c -2.101,0 -3.722,-0.628 -4.867,-1.862 m 87.154,1.249 -5.152,-13.033 c -0.041,-0.085 -0.061,-0.183 -0.061,-0.306 v 0 c 0,-0.204 0.065,-0.367 0.209,-0.513 v 0 c 0.137,-0.136 0.302,-0.208 0.504,-0.208 v 0 c 0.342,0 0.571,0.171 0.701,0.503 v 0 l 1.536,3.866 h 5.897 l 1.517,-3.885 c 0.125,-0.326 0.359,-0.484 0.699,-0.484 v 0 c 0.209,0 0.381,0.072 0.523,0.208 v 0 c 0.14,0.146 0.212,0.309 0.212,0.513 v 0 c 0,0.109 -0.014,0.213 -0.061,0.306 v 0 l -5.157,13.033 c -0.134,0.327 -0.362,0.484 -0.693,0.484 v 0 c -0.312,0 -0.535,-0.157 -0.674,-0.484 m 0.674,-1.917 2.514,-6.465 h -5.004 z m -47.134,2.192 c -0.139,-0.137 -0.204,-0.307 -0.204,-0.511 v 0 -12.933 c 0,-0.203 0.065,-0.374 0.204,-0.52 v 0 c 0.15,-0.135 0.312,-0.2 0.515,-0.2 v 0 h 6.497 c 0.197,0 0.359,0.059 0.485,0.19 v 0 c 0.137,0.123 0.196,0.287 0.196,0.483 v 0 c 0,0.195 -0.059,0.36 -0.196,0.485 v 0 c -0.126,0.124 -0.288,0.19 -0.485,0.19 v 0 h -5.776 v 12.305 c 0,0.204 -0.078,0.374 -0.217,0.511 v 0 c -0.143,0.143 -0.307,0.209 -0.504,0.209 v 0 c -0.203,0 -0.365,-0.066 -0.515,-0.209 m -19.59,0.012 c -0.143,-0.131 -0.21,-0.302 -0.21,-0.498 v 0 -10.834 l -7.484,11.234 c -0.142,0.196 -0.326,0.295 -0.568,0.295 v 0 c -0.175,0 -0.34,-0.059 -0.484,-0.197 v 0 c -0.139,-0.131 -0.21,-0.302 -0.21,-0.498 v 0 -13.148 c 0,-0.192 0.071,-0.347 0.21,-0.493 v 0 c 0.144,-0.136 0.309,-0.208 0.484,-0.208 v 0 c 0.192,0 0.348,0.072 0.484,0.208 v 0 c 0.145,0.146 0.216,0.301 0.216,0.493 v 0 10.806 l 7.431,-11.211 c 0.152,-0.197 0.355,-0.296 0.59,-0.296 v 0 c 0.197,0 0.365,0.072 0.503,0.208 v 0 c 0.145,0.146 0.217,0.309 0.217,0.513 v 0 13.128 c 0,0.196 -0.072,0.367 -0.217,0.498 v 0 c -0.138,0.138 -0.294,0.197 -0.476,0.197 v 0 c -0.183,0 -0.347,-0.059 -0.486,-0.197 m -52.807,-0.137 -3.736,-5.991 -3.744,5.991 c -0.143,0.222 -0.352,0.334 -0.614,0.334 v 0 c -0.189,0 -0.367,-0.066 -0.503,-0.209 v 0 c -0.145,-0.137 -0.21,-0.307 -0.21,-0.511 v 0 c 0,-0.13 0.026,-0.269 0.104,-0.375 v 0 l 4.241,-6.678 v -6.05 c 0,-0.204 0.07,-0.367 0.214,-0.513 v 0 c 0.145,-0.136 0.301,-0.208 0.512,-0.208 v 0 c 0.19,0 0.359,0.072 0.502,0.208 v 0 c 0.139,0.146 0.209,0.309 0.209,0.513 v 0 6.05 l 4.246,6.678 c 0.067,0.106 0.112,0.245 0.112,0.375 v 0 c 0,0.204 -0.079,0.374 -0.222,0.511 v 0 c -0.144,0.143 -0.306,0.209 -0.506,0.209 v 0 c -0.265,0 -0.468,-0.112 -0.605,-0.334 m 110.368,0.059 c -0.137,-0.138 -0.212,-0.307 -0.212,-0.511 v 0 -13.103 c 0,-0.203 0.075,-0.366 0.212,-0.512 v 0 c 0.144,-0.137 0.314,-0.209 0.504,-0.209 v 0 c 0.195,0 0.364,0.072 0.509,0.209 v 0 c 0.137,0.146 0.211,0.309 0.211,0.512 v 0 13.103 c 0,0.204 -0.074,0.373 -0.211,0.511 v 0 c -0.145,0.143 -0.314,0.209 -0.509,0.209 v 0 c -0.19,0 -0.36,-0.066 -0.504,-0.209 m -89.846,0.11 c -0.196,0 -0.368,-0.072 -0.503,-0.209 v 0 c -0.152,-0.142 -0.216,-0.313 -0.216,-0.509 v 0 -12.77 c 0,-0.203 0.064,-0.374 0.216,-0.52 v 0 c 0.135,-0.135 0.307,-0.2 0.503,-0.2 v 0 h 7.008 c 0.183,0 0.339,0.059 0.464,0.19 v 0 c 0.123,0.123 0.19,0.279 0.19,0.457 v 0 c 0,0.19 -0.067,0.34 -0.19,0.465 v 0 c -0.125,0.131 -0.281,0.189 -0.464,0.189 v 0 h -6.296 v 5.201 h 4.647 c 0.182,0 0.334,0.066 0.464,0.191 v 0 c 0.132,0.122 0.197,0.279 0.197,0.464 v 0 c 0,0.182 -0.065,0.332 -0.197,0.464 v 0 c -0.13,0.124 -0.282,0.19 -0.464,0.19 v 0 h -4.647 v 5.091 h 6.059 c 0.184,0 0.342,0.058 0.473,0.181 v 0 c 0.115,0.131 0.188,0.289 0.188,0.472 v 0 c 0,0.176 -0.073,0.334 -0.188,0.465 v 0 c -0.131,0.123 -0.289,0.188 -0.473,0.188 v 0 z m -12.586,0 c -0.2,0 -0.362,-0.065 -0.492,-0.203 v 0 c -0.124,-0.131 -0.19,-0.294 -0.19,-0.476 v 0 c 0,-0.185 0.066,-0.34 0.19,-0.471 v 0 c 0.13,-0.139 0.292,-0.196 0.492,-0.196 v 0 h 3.781 v -12.312 c 0,-0.204 0.065,-0.367 0.209,-0.513 v 0 c 0.136,-0.136 0.307,-0.208 0.502,-0.208 v 0 c 0.197,0 0.367,0.072 0.512,0.208 v 0 c 0.137,0.146 0.209,0.309 0.209,0.513 v 0 12.312 h 3.762 c 0.183,0 0.339,0.057 0.478,0.196 v 0 c 0.131,0.131 0.203,0.286 0.203,0.471 v 0 c 0,0.182 -0.072,0.345 -0.203,0.476 v 0 c -0.139,0.138 -0.295,0.203 -0.478,0.203 v 0 z M 283.7,280.452 c -2.154,-4.897 0.078,-10.642 4.977,-12.788 v 0 c 4.9,-2.16 10.639,0.076 12.791,4.978 v 0 c 2.152,4.9 -0.079,10.639 -4.978,12.789 v 0 c -1.266,0.556 -2.588,0.819 -3.89,0.819 v 0 c -3.736,10e-4 -7.305,-2.168 -8.9,-5.798 m 6.92,-8.372 c -2.461,1.085 -3.586,3.972 -2.498,6.423 v 0 c 1.079,2.469 3.957,3.593 6.424,2.507 v 0 c 2.458,-1.08 3.583,-3.965 2.498,-6.425 v 0 c -0.801,-1.828 -2.59,-2.916 -4.467,-2.916 v 0 c -0.655,0 -1.319,0.132 -1.957,0.411 m 169.681,-0.648 c -1.145,-1.257 -1.714,-3.096 -1.714,-5.549 v 0 c 0,-4.925 2.197,-7.392 6.59,-7.392 v 0 c 0.966,0 1.889,0.209 2.759,0.615 v 0 c 0.876,0.405 1.545,0.948 2.008,1.628 v 0 c 0.085,0.127 0.125,0.257 0.125,0.395 v 0 c 0,0.189 -0.06,0.344 -0.191,0.476 v 0 c -0.115,0.137 -0.287,0.202 -0.482,0.202 v 0 c -0.245,0 -0.42,-0.091 -0.551,-0.275 v 0 c -0.393,-0.562 -0.922,-0.993 -1.582,-1.287 v 0 c -0.663,-0.296 -1.355,-0.446 -2.086,-0.446 v 0 c -1.69,0 -2.965,0.485 -3.831,1.453 v 0 c -0.855,0.963 -1.28,2.513 -1.28,4.631 v 0 c 0,2.042 0.437,3.573 1.322,4.581 v 0 c 0.876,1.013 2.138,1.524 3.789,1.524 v 0 c 0.758,0 1.462,-0.163 2.116,-0.497 v 0 c 0.655,-0.327 1.18,-0.753 1.552,-1.283 v 0 c 0.144,-0.177 0.322,-0.267 0.551,-0.267 v 0 c 0.195,0 0.367,0.058 0.482,0.189 v 0 c 0.131,0.123 0.191,0.287 0.191,0.482 v 0 c 0,0.158 -0.047,0.302 -0.144,0.44 v 0 c -0.512,0.693 -1.178,1.244 -2.01,1.642 v 0 c -0.824,0.398 -1.747,0.602 -2.738,0.602 v 0 c -2.104,0 -3.725,-0.628 -4.876,-1.864 m 53.948,1.251 -5.15,-13.034 c -0.044,-0.085 -0.064,-0.184 -0.064,-0.306 v 0 c 0,-0.204 0.064,-0.367 0.208,-0.513 v 0 c 0.139,-0.138 0.309,-0.208 0.504,-0.208 v 0 c 0.342,0 0.57,0.17 0.701,0.503 v 0 l 1.545,3.866 h 5.879 l 1.525,-3.885 c 0.132,-0.326 0.366,-0.484 0.699,-0.484 v 0 c 0.212,0 0.387,0.07 0.53,0.208 v 0 c 0.138,0.146 0.205,0.309 0.205,0.513 v 0 c 0,0.11 -0.022,0.213 -0.059,0.306 v 0 l -5.156,13.034 c -0.138,0.326 -0.367,0.482 -0.701,0.482 v 0 c -0.307,0 -0.529,-0.156 -0.666,-0.482 m 0.666,-1.917 2.514,-6.465 h -4.999 z m -6.666,1.942 -4.285,-11.365 -4.291,11.365 c -0.105,0.301 -0.334,0.457 -0.676,0.457 v 0 c -0.195,0 -0.365,-0.065 -0.502,-0.209 v 0 c -0.144,-0.137 -0.216,-0.306 -0.216,-0.51 v 0 c 0,-0.08 0.025,-0.19 0.072,-0.315 v 0 l 4.939,-13.025 c 0.105,-0.326 0.334,-0.484 0.674,-0.484 v 0 c 0.334,0 0.564,0.158 0.674,0.484 v 0 l 4.939,13.025 c 0.051,0.125 0.067,0.235 0.067,0.315 v 0 c 0,0.204 -0.073,0.373 -0.217,0.51 v 0 c -0.137,0.144 -0.307,0.209 -0.51,0.209 v 0 c -0.326,0 -0.551,-0.156 -0.668,-0.457 m -13.281,0.248 c -0.144,-0.137 -0.209,-0.306 -0.209,-0.51 v 0 -13.103 c 0,-0.204 0.065,-0.367 0.209,-0.513 v 0 c 0.144,-0.138 0.308,-0.208 0.512,-0.208 v 0 c 0.195,0 0.367,0.07 0.501,0.208 v 0 c 0.139,0.146 0.21,0.309 0.21,0.513 v 0 13.103 c 0,0.204 -0.071,0.373 -0.21,0.51 v 0 c -0.134,0.144 -0.306,0.209 -0.501,0.209 v 0 c -0.204,0 -0.368,-0.065 -0.512,-0.209 m -18.303,-0.273 -5.156,-13.034 c -0.047,-0.085 -0.061,-0.184 -0.061,-0.306 v 0 c 0,-0.204 0.066,-0.367 0.203,-0.513 v 0 c 0.145,-0.138 0.307,-0.208 0.51,-0.208 v 0 c 0.342,0 0.577,0.17 0.702,0.503 v 0 l 1.542,3.866 h 5.891 l 1.517,-3.885 c 0.123,-0.326 0.36,-0.484 0.698,-0.484 v 0 c 0.208,0 0.387,0.07 0.525,0.208 v 0 c 0.144,0.146 0.215,0.309 0.215,0.513 v 0 c 0,0.11 -0.019,0.213 -0.066,0.306 v 0 l -5.155,13.034 c -0.136,0.326 -0.365,0.482 -0.693,0.482 v 0 c -0.313,0 -0.537,-0.156 -0.672,-0.482 m 0.672,-1.917 2.52,-6.465 h -5.013 z m -22.492,2.19 c -0.145,-0.137 -0.209,-0.306 -0.209,-0.51 v 0 -9.329 c 0,-0.982 -0.256,-1.781 -0.76,-2.377 v 0 c -0.51,-0.596 -1.426,-0.895 -2.748,-0.895 v 0 c -0.705,0 -1.295,0.092 -1.771,0.261 v 0 c -0.479,0.178 -0.845,0.427 -1.081,0.755 v 0 c -0.255,0.325 -0.425,0.665 -0.523,1.02 v 0 c -0.098,0.366 -0.151,0.765 -0.151,1.236 v 0 9.329 c 0,0.204 -0.072,0.373 -0.21,0.51 v 0 c -0.143,0.144 -0.313,0.209 -0.508,0.209 v 0 c -0.191,0 -0.362,-0.065 -0.504,-0.209 v 0 c -0.138,-0.137 -0.209,-0.306 -0.209,-0.51 v 0 -9.329 c 0,-3.081 1.652,-4.626 4.957,-4.626 v 0 c 3.296,0 4.947,1.545 4.947,4.626 v 0 9.329 c 0,0.204 -0.072,0.373 -0.217,0.51 v 0 c -0.137,0.144 -0.309,0.209 -0.504,0.209 v 0 c -0.202,0 -0.367,-0.065 -0.509,-0.209 m 28.039,0.045 c -0.19,0 -0.352,-0.064 -0.475,-0.202 v 0 c -0.13,-0.131 -0.197,-0.295 -0.197,-0.478 v 0 c 0,-0.184 0.067,-0.339 0.197,-0.471 v 0 c 0.123,-0.137 0.285,-0.196 0.475,-0.196 v 0 h 3.783 v -12.311 c 0,-0.204 0.07,-0.367 0.215,-0.513 v 0 c 0.137,-0.138 0.309,-0.208 0.504,-0.208 v 0 c 0.197,0 0.367,0.07 0.509,0.208 v 0 c 0.139,0.146 0.209,0.309 0.209,0.513 v 0 12.311 h 3.762 c 0.177,0 0.334,0.059 0.481,0.196 v 0 c 0.123,0.132 0.2,0.287 0.2,0.471 v 0 c 0,0.183 -0.077,0.347 -0.2,0.478 v 0 c -0.147,0.138 -0.304,0.202 -0.481,0.202 v 0 z m -48.838,0 c -0.196,0 -0.366,-0.071 -0.51,-0.21 v 0 c -0.136,-0.141 -0.203,-0.312 -0.203,-0.508 v 0 -12.772 c 0,-0.201 0.067,-0.372 0.203,-0.517 v 0 c 0.144,-0.137 0.314,-0.202 0.51,-0.202 v 0 h 2.979 c 2.118,0 3.728,0.551 4.847,1.661 v 0 c 1.117,1.111 1.679,2.925 1.679,5.43 v 0 c 0,2.508 -0.562,4.319 -1.679,5.437 v 0 c -1.119,1.119 -2.729,1.681 -4.847,1.681 v 0 z m 0.714,-1.306 h 2.265 c 1.667,0 2.923,-0.454 3.781,-1.343 v 0 c 0.857,-0.896 1.288,-2.382 1.288,-4.469 v 0 c 0,-2.1 -0.431,-3.585 -1.288,-4.467 v 0 c -0.858,-0.877 -2.114,-1.322 -3.781,-1.322 v 0 h -2.265 z m -11.652,1.306 c -0.195,0 -0.367,-0.071 -0.503,-0.21 v 0 c -0.14,-0.141 -0.21,-0.312 -0.21,-0.508 v 0 -12.772 c 0,-0.201 0.07,-0.372 0.21,-0.517 v 0 c 0.136,-0.137 0.308,-0.202 0.503,-0.202 v 0 h 7.02 c 0.177,0 0.326,0.059 0.459,0.191 v 0 c 0.13,0.123 0.187,0.28 0.187,0.457 v 0 c 0,0.189 -0.057,0.34 -0.187,0.466 v 0 c -0.133,0.13 -0.282,0.188 -0.459,0.188 v 0 h -6.301 v 5.201 h 4.647 c 0.183,0 0.339,0.066 0.47,0.191 v 0 c 0.117,0.124 0.184,0.28 0.184,0.463 v 0 c 0,0.183 -0.067,0.334 -0.184,0.465 v 0 c -0.131,0.125 -0.287,0.19 -0.47,0.19 v 0 h -4.647 v 5.091 h 6.066 c 0.184,0 0.332,0.058 0.464,0.181 v 0 c 0.125,0.131 0.189,0.287 0.189,0.473 v 0 c 0,0.176 -0.064,0.334 -0.189,0.463 v 0 c -0.132,0.125 -0.28,0.189 -0.464,0.189 v 0 z" /></g></g></g></g></g></svg>